<svg width="445" height="104" viewBox="0 0 445 104" fill="none" xmlns="http://www.w3.org/2000/svg">
<path d="M104.86 20.76C110.653 21.8967 113.55 24.9033 113.55 29.78C113.55 33.3367 112.267 36.105 109.7 38.085C107.133 40.0283 103.797 41 99.69 41H81.815V38.58C81.815 38.03 82.09 37.7 82.64 37.59L85.775 36.93V5.69L82.64 5.03C82.09 4.92 81.815 4.59 81.815 4.04V1.62H98.37C102.66 1.62 106.033 2.42666 108.49 4.04C110.983 5.65333 112.23 8.14667 112.23 11.52C112.23 13.9033 111.625 15.8467 110.415 17.35C109.205 18.8533 107.353 19.99 104.86 20.76ZM98.15 19.22C100.937 19.22 103.1 18.6883 104.64 17.625C106.18 16.525 106.95 14.8567 106.95 12.62C106.95 10.2367 106.217 8.53167 104.75 7.505C103.32 6.44167 101.193 5.91 98.37 5.91H91.11V19.22H98.15ZM108.27 29.67C108.27 27.3967 107.5 25.7283 105.96 24.665C104.457 23.6017 102.348 23.07 99.635 23.07H91.11V36.765H99.69C102.587 36.8017 104.732 36.215 106.125 35.005C107.555 33.7583 108.27 31.98 108.27 29.67ZM128.459 12.73C130.072 12.73 131.594 13.005 133.024 13.555C134.49 14.105 135.7 14.8933 136.654 15.92C137.754 17.0933 138.56 18.395 139.074 19.825C139.66 21.475 139.954 23.235 139.954 25.105C139.954 25.9483 139.88 26.4617 139.734 26.645C139.55 26.9017 139.22 27.03 138.744 27.03H120.264C120.264 28.79 120.484 30.33 120.924 31.65C121.29 32.7867 121.914 33.85 122.794 34.84C123.6 35.7567 124.517 36.4167 125.544 36.82C126.644 37.26 127.817 37.48 129.064 37.48C130.384 37.48 131.447 37.3517 132.254 37.095C133.024 36.8383 133.794 36.5267 134.564 36.16C135.37 35.7567 135.92 35.4633 136.214 35.28C136.69 34.9867 137.057 34.84 137.314 34.84C137.717 34.84 138.029 35.005 138.249 35.335L139.624 37.15C139.11 37.81 138.377 38.4333 137.424 39.02C136.324 39.7167 135.425 40.175 134.729 40.395C133.629 40.7617 132.639 41.0183 131.759 41.165C130.659 41.3483 129.65 41.44 128.734 41.44C126.827 41.44 125.049 41.11 123.399 40.45C121.822 39.8267 120.41 38.855 119.164 37.535C117.99 36.325 117.074 34.7667 116.414 32.86C115.754 30.99 115.424 28.8633 115.424 26.48C115.424 24.5733 115.735 22.7767 116.359 21.09C116.982 19.3667 117.844 17.9 118.944 16.69C120.08 15.4433 121.455 14.4717 123.069 13.775C124.682 13.0783 126.479 12.73 128.459 12.73ZM128.569 16.305C126.185 16.305 124.334 16.9833 123.014 18.34C121.657 19.77 120.814 21.6767 120.484 24.06H135.609C135.609 22.9233 135.444 21.8967 135.114 20.98C134.71 19.8433 134.27 19.0183 133.794 18.505C133.17 17.845 132.419 17.3133 131.539 16.91C130.695 16.5433 129.687 16.36 128.514 16.36L128.569 16.305ZM151.469 17.075C153.816 14.1783 156.437 12.73 159.334 12.73C161.241 12.73 162.781 13.2617 163.954 14.325C165.091 15.3517 165.934 16.7633 166.484 18.56C167.291 16.58 168.501 15.1133 170.114 14.16C171.801 13.2067 173.414 12.73 174.954 12.73C176.567 12.73 177.997 12.9683 179.244 13.445C180.417 13.885 181.407 14.5633 182.214 15.48C183.827 17.3133 184.634 19.9167 184.634 23.29V37.04C186.467 37.37 187.531 37.59 187.824 37.7C188.374 37.81 188.649 38.14 188.649 38.69V41.11H179.794V23.345C179.794 21.1083 179.317 19.4583 178.364 18.395C177.337 17.2583 175.944 16.69 174.184 16.69C172.497 16.69 171.104 17.24 170.004 18.34C168.794 19.55 168.189 21.2 168.189 23.29V37.04C168.336 37.0767 168.647 37.15 169.124 37.26C169.601 37.37 170.334 37.5167 171.324 37.7C171.874 37.81 172.149 38.14 172.149 38.69V41.055H163.294V23.29C163.294 18.89 161.534 16.69 158.014 16.69C155.741 16.69 153.669 17.9 151.799 20.32V37.04L153.284 37.315L154.934 37.645C155.484 37.755 155.759 38.1033 155.759 38.69V41H142.944V38.69C142.944 38.1033 143.201 37.755 143.714 37.645L146.904 37.04V17.185C145.071 16.855 144.007 16.635 143.714 16.525C143.201 16.415 142.944 16.0667 142.944 15.48V13.17H149.764C150.424 13.17 150.864 13.5 151.084 14.16L151.469 17.02V17.075ZM217.351 26.59H203.821V22.41H217.351V26.59ZM272.902 4.04C272.902 4.59 272.646 4.92 272.132 5.03L269.382 5.69L254.917 41.11H250.132L235.722 5.69C234.182 5.36 233.247 5.14 232.917 5.03C232.367 4.92 232.092 4.59 232.092 4.04V1.62H245.182V4.04C245.182 4.62667 244.816 4.975 244.082 5.085L242.872 5.36L241.222 5.69L251.287 30.715C251.691 31.595 252.131 33.025 252.607 35.005C253.121 32.8783 253.542 31.43 253.872 30.66L263.827 5.635C262.067 5.305 261.022 5.085 260.692 4.975C260.142 4.865 259.867 4.51666 259.867 3.93V1.62L272.902 1.675V4.04ZM277.162 6.845C276.868 6.55167 276.612 6.185 276.392 5.745C276.208 5.37833 276.117 4.93833 276.117 4.425C276.117 3.875 276.208 3.41667 276.392 3.05C276.648 2.53666 276.905 2.15166 277.162 1.895C277.455 1.60166 277.822 1.345 278.262 1.125C278.628 0.941666 279.068 0.849999 279.582 0.849999C280.095 0.849999 280.535 0.941666 280.902 1.125C281.342 1.345 281.708 1.60166 282.002 1.895C282.258 2.15166 282.515 2.53666 282.772 3.05C282.992 3.49 283.102 3.94833 283.102 4.425C283.102 4.865 282.992 5.305 282.772 5.745C282.552 6.185 282.295 6.55167 282.002 6.845C281.708 7.13833 281.342 7.395 280.902 7.615C280.535 7.79833 280.095 7.89 279.582 7.89C279.068 7.89 278.628 7.79833 278.262 7.615C277.822 7.395 277.455 7.13833 277.162 6.845ZM285.137 37.59C285.393 37.6267 285.595 37.755 285.742 37.975C285.888 38.1583 285.962 38.3783 285.962 38.635V41H273.147V38.635C273.147 38.3783 273.22 38.1583 273.367 37.975C273.513 37.755 273.715 37.6267 273.972 37.59L277.162 36.985V17.13L273.972 16.525C273.715 16.4883 273.513 16.3783 273.367 16.195C273.22 15.975 273.147 15.7367 273.147 15.48V13.17H282.002V36.985L285.137 37.59ZM297.47 17.13C300.22 14.16 303.3 12.675 306.71 12.675C309.717 12.675 312.027 13.6467 313.64 15.59C315.217 17.4967 316.005 20.045 316.005 23.235V36.93C317.765 37.26 318.81 37.48 319.14 37.59C319.727 37.7 320.02 38.0483 320.02 38.635V41H311.11V23.29C311.11 18.8167 309.167 16.58 305.28 16.58C302.53 16.58 300 17.8817 297.69 20.485V36.985C297.837 36.985 298.9 37.205 300.88 37.645C301.43 37.755 301.705 38.1033 301.705 38.69V41H288.89V38.69C288.89 38.1033 289.147 37.755 289.66 37.645L292.85 37.04V17.185C291.017 16.855 289.953 16.635 289.66 16.525C289.147 16.415 288.89 16.0667 288.89 15.48V13.17H295.71C296.37 13.17 296.81 13.5 297.03 14.16L297.47 17.185V17.13ZM334.385 12.62C337.465 12.62 339.995 13.72 341.975 15.92V4.48L338.29 3.82C337.74 3.71 337.465 3.38 337.465 2.83V0.409998H346.815V36.93C348.648 37.26 349.712 37.48 350.005 37.59C350.518 37.7 350.775 38.03 350.775 38.58V41H343.955C343.295 41 342.855 40.6517 342.635 39.955L342.195 36.6C339.592 39.7533 336.475 41.33 332.845 41.33C329.582 41.33 327.015 40.12 325.145 37.7C323.238 35.17 322.285 31.65 322.285 27.14C322.285 22.9233 323.367 19.4767 325.53 16.8C327.767 14.0133 330.718 12.62 334.385 12.62ZM334.495 37.425C337.392 37.425 339.885 36.0133 341.975 33.19V19.77C340.325 17.57 338.18 16.47 335.54 16.47C332.863 16.47 330.828 17.3867 329.435 19.22C328.042 21.0533 327.345 23.6933 327.345 27.14C327.345 32.3833 328.702 35.61 331.415 36.82C332.258 37.1867 333.267 37.37 334.44 37.37L334.495 37.425ZM366.32 12.73C368.337 12.73 370.17 13.06 371.82 13.72C373.433 14.38 374.845 15.3333 376.055 16.58C377.192 17.7533 378.072 19.2567 378.695 21.09C379.318 22.8867 379.63 24.8667 379.63 27.03C379.63 29.1933 379.318 31.1733 378.695 32.97C378.072 34.8033 377.192 36.3067 376.055 37.48C374.845 38.7267 373.433 39.68 371.82 40.34C370.17 41 368.337 41.33 366.32 41.33C364.303 41.33 362.47 41 360.82 40.34C359.207 39.68 357.795 38.7267 356.585 37.48C355.485 36.3433 354.587 34.84 353.89 32.97C353.303 31.3933 353.01 29.4133 353.01 27.03C353.01 24.6467 353.303 22.6667 353.89 21.09C354.587 19.22 355.485 17.7167 356.585 16.58C357.795 15.3333 359.207 14.38 360.82 13.72C362.47 13.06 364.303 12.73 366.32 12.73ZM366.32 37.59C369.143 37.59 371.197 36.6733 372.48 34.84C373.837 32.9333 374.515 30.3483 374.515 27.085C374.515 23.8217 373.837 21.2367 372.48 19.33C371.197 17.4967 369.143 16.58 366.32 16.58C364.89 16.58 363.68 16.8 362.69 17.24C361.737 17.68 360.893 18.3767 360.16 19.33C359.463 20.2833 358.95 21.3833 358.62 22.63C358.253 24.0967 358.07 25.6 358.07 27.14C358.07 28.6067 358.253 30.0733 358.62 31.54C358.95 32.7867 359.463 33.8867 360.16 34.84C360.783 35.6833 361.627 36.3433 362.69 36.82C363.863 37.3333 365.073 37.59 366.32 37.59Z" fill="#0094FF"/>
<path d="M92.96 62.84C91.6 62.84 90.92 63.6067 90.92 65.14V66.08H93.84V67.36H90.96V74.54C91.6 74.6333 92.0467 74.7067 92.3 74.76C92.5 74.8 92.6 74.9267 92.6 75.14V76H87.64V75.14C87.64 74.9267 87.74 74.8 87.94 74.76L89.18 74.54V67.4L88.06 67.26C87.74 67.18 87.58 67.0267 87.58 66.8V66.08H89.18V65.1C89.18 63.9267 89.4933 63.0267 90.12 62.4C90.7333 61.7733 91.58 61.46 92.66 61.46C93.06 61.46 93.48 61.5267 93.92 61.66L93.88 62.56C93.88 62.68 93.82 62.76 93.7 62.8C93.62 62.8267 93.4667 62.84 93.24 62.84H92.96ZM103.561 74.72C103.655 74.7333 103.728 74.78 103.781 74.86C103.835 74.9267 103.861 75.0067 103.861 75.1V75.96H101.781C101.661 75.96 101.521 75.9333 101.361 75.88C101.268 75.8533 101.201 75.7467 101.161 75.56L100.961 74.6L100.161 75.26C99.9347 75.4467 99.6681 75.6067 99.3614 75.74C99.0681 75.8733 98.7747 75.9733 98.4814 76.04C98.2147 76.1067 97.8547 76.14 97.4014 76.14C97.0281 76.14 96.6681 76.08 96.3214 75.96C95.9081 75.8133 95.6081 75.6533 95.4214 75.48C95.1814 75.2667 94.9814 74.9867 94.8214 74.64C94.6747 74.3333 94.6014 73.9333 94.6014 73.44C94.6014 73.0133 94.7081 72.6267 94.9214 72.28C95.1614 71.8933 95.5214 71.56 96.0014 71.28C96.5347 70.9733 97.1747 70.7333 97.9214 70.56C98.6947 70.3867 99.6681 70.3 100.841 70.3V69.52C100.841 68.7333 100.668 68.1333 100.321 67.72C99.9747 67.3067 99.4747 67.1 98.8214 67.1C98.3947 67.1 98.0281 67.16 97.7214 67.28C97.3747 67.4133 97.1214 67.5333 96.9614 67.64C96.8814 67.6933 96.7881 67.7533 96.6814 67.82C96.5881 67.8733 96.4881 67.9333 96.3814 68C96.2347 68.1067 96.0814 68.16 95.9214 68.16C95.7747 68.16 95.6681 68.1333 95.6014 68.08C95.5214 68.0133 95.4547 67.9333 95.4014 67.84L95.0814 67.28C95.6014 66.7733 96.2014 66.3733 96.8814 66.08C97.4947 65.8133 98.2147 65.68 99.0414 65.68C99.6414 65.68 100.148 65.7733 100.561 65.96C101.015 66.16 101.381 66.4133 101.661 66.72C101.955 67.0267 102.181 67.4267 102.341 67.92C102.488 68.36 102.561 68.88 102.561 69.48V74.54C103.201 74.6733 103.535 74.7467 103.561 74.76V74.72ZM100.801 71.44C99.9347 71.44 99.2414 71.4867 98.7214 71.58C98.2147 71.6733 97.7481 71.8133 97.3214 72C96.9481 72.1733 96.6814 72.3733 96.5214 72.6C96.3614 72.84 96.2814 73.0933 96.2814 73.36C96.2814 73.5733 96.3281 73.8 96.4214 74.04C96.5014 74.24 96.6214 74.4 96.7814 74.52C96.9414 74.64 97.1147 74.7267 97.3014 74.78C97.5281 74.8467 97.7481 74.88 97.9614 74.88C98.2281 74.88 98.5081 74.8467 98.8014 74.78C99.0681 74.7133 99.3147 74.6267 99.5414 74.52C99.7414 74.4267 99.9614 74.28 100.201 74.08C100.335 73.9733 100.535 73.7867 100.801 73.52V71.44ZM112.715 74.6C111.982 75.4933 110.895 76 109.455 76.12L109.275 76.72C109.875 76.84 110.309 77.0133 110.575 77.24C110.855 77.48 110.995 77.7467 110.995 78.04C110.995 78.3467 110.942 78.5733 110.835 78.72C110.689 78.92 110.535 79.0667 110.375 79.16C109.975 79.4 109.455 79.52 108.815 79.52C108.349 79.52 107.869 79.4133 107.375 79.2L107.535 78.66C107.575 78.54 107.655 78.48 107.775 78.48C107.789 78.48 107.835 78.4933 107.915 78.52C108.035 78.56 108.095 78.58 108.095 78.58C108.295 78.66 108.522 78.7 108.775 78.7C109.042 78.7 109.242 78.64 109.375 78.52C109.509 78.4 109.575 78.2733 109.575 78.14C109.575 77.9667 109.542 77.8467 109.475 77.78C109.382 77.6867 109.282 77.6133 109.175 77.56C108.962 77.4667 108.562 77.38 107.975 77.3L108.335 76.08C107.322 75.96 106.475 75.52 105.795 74.76C104.929 73.7867 104.495 72.5067 104.495 70.92C104.495 69.3867 104.909 68.1467 105.735 67.2C106.589 66.2133 107.769 65.72 109.275 65.72C110.049 65.72 111.049 65.9667 112.275 66.46V69.08H111.475C111.289 69.08 111.175 68.9867 111.135 68.8C111.122 68.76 111.095 68.5067 111.055 68.04C111.029 67.7467 111.015 67.5267 111.015 67.38L110.295 67.2C110.029 67.1467 109.642 67.12 109.135 67.12C108.789 67.12 108.422 67.2067 108.035 67.38C107.675 67.54 107.362 67.7867 107.095 68.12C106.589 68.7867 106.335 69.72 106.335 70.92C106.335 72.12 106.602 73.0667 107.135 73.76C107.655 74.4267 108.369 74.76 109.275 74.76C110.115 74.76 110.855 74.48 111.495 73.92C111.602 73.8133 111.735 73.76 111.895 73.76C112.042 73.76 112.149 73.8133 112.215 73.92L112.715 74.6ZM122.218 74.72C122.312 74.7333 122.385 74.78 122.438 74.86C122.492 74.9267 122.518 75.0067 122.518 75.1V75.96H120.438C120.318 75.96 120.178 75.9333 120.018 75.88C119.925 75.8533 119.858 75.7467 119.818 75.56L119.618 74.6L118.818 75.26C118.592 75.4467 118.325 75.6067 118.018 75.74C117.725 75.8733 117.432 75.9733 117.138 76.04C116.872 76.1067 116.512 76.14 116.058 76.14C115.685 76.14 115.325 76.08 114.978 75.96C114.565 75.8133 114.265 75.6533 114.078 75.48C113.838 75.2667 113.638 74.9867 113.478 74.64C113.332 74.3333 113.258 73.9333 113.258 73.44C113.258 73.0133 113.365 72.6267 113.578 72.28C113.818 71.8933 114.178 71.56 114.658 71.28C115.192 70.9733 115.832 70.7333 116.578 70.56C117.352 70.3867 118.325 70.3 119.498 70.3V69.52C119.498 68.7333 119.325 68.1333 118.978 67.72C118.632 67.3067 118.132 67.1 117.478 67.1C117.052 67.1 116.685 67.16 116.378 67.28C116.032 67.4133 115.778 67.5333 115.618 67.64C115.538 67.6933 115.445 67.7533 115.338 67.82C115.245 67.8733 115.145 67.9333 115.038 68C114.892 68.1067 114.738 68.16 114.578 68.16C114.432 68.16 114.325 68.1333 114.258 68.08C114.178 68.0133 114.112 67.9333 114.058 67.84L113.738 67.28C114.258 66.7733 114.858 66.3733 115.538 66.08C116.152 65.8133 116.872 65.68 117.698 65.68C118.298 65.68 118.805 65.7733 119.218 65.96C119.672 66.16 120.038 66.4133 120.318 66.72C120.612 67.0267 120.838 67.4267 120.998 67.92C121.145 68.36 121.218 68.88 121.218 69.48V74.54C121.858 74.6733 122.192 74.7467 122.218 74.76V74.72ZM119.458 71.44C118.592 71.44 117.898 71.4867 117.378 71.58C116.872 71.6733 116.405 71.8133 115.978 72C115.605 72.1733 115.338 72.3733 115.178 72.6C115.018 72.84 114.938 73.0933 114.938 73.36C114.938 73.5733 114.985 73.8 115.078 74.04C115.158 74.24 115.278 74.4 115.438 74.52C115.598 74.64 115.772 74.7267 115.958 74.78C116.185 74.8467 116.405 74.88 116.618 74.88C116.885 74.88 117.165 74.8467 117.458 74.78C117.725 74.7133 117.972 74.6267 118.198 74.52C118.398 74.4267 118.618 74.28 118.858 74.08C118.992 73.9733 119.192 73.7867 119.458 73.52V71.44ZM131.309 65.72C132.002 65.72 132.882 65.9 133.949 66.26V68.86H133.169C132.982 68.86 132.869 68.7667 132.829 68.58L132.709 67.26C132.082 67.1133 131.562 67.04 131.149 67.04H131.129C130.582 67.04 130.122 67.1867 129.749 67.48C129.389 67.76 129.209 68.0667 129.209 68.4C129.209 68.7467 129.289 69 129.449 69.16C129.716 69.4667 130.102 69.7 130.609 69.86L131.209 70.04C131.316 70.0667 131.529 70.1333 131.849 70.24L132.809 70.6C133.076 70.6933 133.356 70.8667 133.649 71.12C134.196 71.5467 134.469 72.1333 134.469 72.88C134.469 73.8533 134.142 74.6267 133.489 75.2C132.782 75.8267 131.889 76.14 130.809 76.14C129.702 76.14 128.609 75.96 127.529 75.6V72.96H128.249C128.409 72.96 128.509 73.04 128.549 73.2L128.669 74.48C129.202 74.7467 129.889 74.88 130.729 74.88C131.369 74.88 131.889 74.7133 132.289 74.38C132.636 74.0733 132.809 73.7333 132.809 73.36C132.809 72.9733 132.729 72.6933 132.569 72.52C132.382 72.3067 132.182 72.1467 131.969 72.04C131.676 71.8933 131.396 71.7867 131.129 71.72C130.142 71.4 129.522 71.1867 129.269 71.08C128.949 70.9333 128.649 70.7467 128.369 70.52C127.809 70.0533 127.529 69.4267 127.529 68.64C127.529 67.84 127.849 67.16 128.489 66.6C129.156 66.0133 130.096 65.72 131.309 65.72ZM140.22 65.72C140.807 65.72 141.36 65.82 141.88 66.02C142.413 66.22 142.853 66.5067 143.2 66.88C143.6 67.3067 143.893 67.78 144.08 68.3C144.293 68.9 144.4 69.54 144.4 70.22C144.4 70.5267 144.373 70.7133 144.32 70.78C144.253 70.8733 144.133 70.92 143.96 70.92H137.24C137.24 71.56 137.32 72.12 137.48 72.6C137.613 73.0133 137.84 73.4 138.16 73.76C138.453 74.0933 138.787 74.3333 139.16 74.48C139.56 74.64 139.987 74.72 140.44 74.72C140.92 74.72 141.307 74.6733 141.6 74.58C141.88 74.4867 142.16 74.3733 142.44 74.24C142.733 74.0933 142.933 73.9867 143.04 73.92C143.213 73.8133 143.347 73.76 143.44 73.76C143.587 73.76 143.7 73.82 143.78 73.94L144.28 74.6C144.093 74.84 143.827 75.0667 143.48 75.28C143.08 75.5333 142.753 75.7 142.5 75.78C142.1 75.9133 141.74 76.0067 141.42 76.06C141.02 76.1267 140.653 76.16 140.32 76.16C139.627 76.16 138.98 76.04 138.38 75.8C137.807 75.5733 137.293 75.22 136.84 74.74C136.413 74.3 136.08 73.7333 135.84 73.04C135.6 72.36 135.48 71.5867 135.48 70.72C135.48 70.0267 135.593 69.3733 135.82 68.76C136.047 68.1333 136.36 67.6 136.76 67.16C137.173 66.7067 137.673 66.3533 138.26 66.1C138.847 65.8467 139.5 65.72 140.22 65.72ZM140.26 67.02C139.393 67.02 138.72 67.2667 138.24 67.76C137.747 68.28 137.44 68.9733 137.32 69.84H142.82C142.82 69.4267 142.76 69.0533 142.64 68.72C142.493 68.3067 142.333 68.0067 142.16 67.82C141.933 67.58 141.66 67.3867 141.34 67.24C141.033 67.1067 140.667 67.04 140.24 67.04L140.26 67.02ZM150.244 74.76C151.244 74.76 152.157 74.2933 152.984 73.36V67.36C152.864 67.32 152.484 67.24 151.844 67.12C151.644 67.08 151.544 66.9533 151.544 66.74V65.88H154.764V74.56C155.404 74.68 155.784 74.76 155.904 74.8C156.104 74.84 156.204 74.96 156.204 75.16V76.02H153.704C153.464 76.02 153.304 75.8933 153.224 75.64L153.084 74.56C152.124 75.64 151.004 76.18 149.724 76.18C148.644 76.18 147.804 75.8267 147.204 75.12C146.617 74.4133 146.324 73.4867 146.324 72.34V67.34C145.71 67.22 145.337 67.14 145.204 67.1C144.99 67.06 144.884 66.9333 144.884 66.72V65.88H148.124V72.32C148.124 73.12 148.297 73.72 148.644 74.12C149.004 74.5333 149.537 74.74 150.244 74.74V74.76ZM165.39 74.76C165.603 74.8 165.71 74.9267 165.71 75.14V76H161.03V75.14C161.03 74.9267 161.136 74.8 161.35 74.76L162.47 74.54V62.72C161.856 62.6 161.483 62.52 161.35 62.48C161.136 62.44 161.03 62.32 161.03 62.12V61.26H164.27V74.52C164.883 74.64 165.256 74.72 165.39 74.76ZM171.15 65.72C171.884 65.72 172.55 65.84 173.15 66.08C173.737 66.32 174.25 66.6667 174.69 67.12C175.104 67.5467 175.424 68.0933 175.65 68.76C175.877 69.4133 175.99 70.1333 175.99 70.92C175.99 71.7067 175.877 72.4267 175.65 73.08C175.424 73.7467 175.104 74.2933 174.69 74.72C174.25 75.1733 173.737 75.52 173.15 75.76C172.55 76 171.884 76.12 171.15 76.12C170.417 76.12 169.75 76 169.15 75.76C168.564 75.52 168.05 75.1733 167.61 74.72C167.21 74.3067 166.884 73.76 166.63 73.08C166.417 72.5067 166.31 71.7867 166.31 70.92C166.31 70.0533 166.417 69.3333 166.63 68.76C166.884 68.08 167.21 67.5333 167.61 67.12C168.05 66.6667 168.564 66.32 169.15 66.08C169.75 65.84 170.417 65.72 171.15 65.72ZM171.15 74.76C172.177 74.76 172.924 74.4267 173.39 73.76C173.884 73.0667 174.13 72.1267 174.13 70.94C174.13 69.7533 173.884 68.8133 173.39 68.12C172.924 67.4533 172.177 67.12 171.15 67.12C170.63 67.12 170.19 67.2 169.83 67.36C169.484 67.52 169.177 67.7733 168.91 68.12C168.657 68.4667 168.47 68.8667 168.35 69.32C168.217 69.8533 168.15 70.4 168.15 70.96C168.15 71.4933 168.217 72.0267 168.35 72.56C168.47 73.0133 168.657 73.4133 168.91 73.76C169.137 74.0667 169.444 74.3067 169.83 74.48C170.257 74.6667 170.697 74.76 171.15 74.76ZM181.205 65.74C181.658 65.74 182.065 65.7867 182.425 65.88C182.811 65.9867 183.158 66.1333 183.465 66.32H186.225V66.98C186.225 67.1933 186.085 67.3333 185.805 67.4L184.665 67.56C184.878 67.9467 184.985 68.4267 184.985 69C184.985 69.52 184.891 69.9667 184.705 70.34C184.491 70.7667 184.231 71.1067 183.925 71.36C183.551 71.6667 183.151 71.8933 182.725 72.04C182.298 72.1867 181.791 72.26 181.205 72.26C180.725 72.26 180.278 72.2 179.865 72.08C179.678 72.1867 179.518 72.3333 179.385 72.52C179.278 72.6667 179.225 72.8133 179.225 72.96C179.225 73.2133 179.318 73.3933 179.505 73.5C179.731 73.6333 179.991 73.72 180.285 73.76C180.711 73.8133 181.078 73.84 181.385 73.84C181.651 73.84 182.065 73.8667 182.625 73.92C182.731 73.9333 182.911 73.9533 183.165 73.98C183.431 73.9933 183.665 74.02 183.865 74.06C184.291 74.14 184.658 74.26 184.965 74.42C185.258 74.5667 185.518 74.8 185.745 75.12C185.931 75.3867 186.025 75.76 186.025 76.24C186.025 76.7067 185.918 77.1333 185.705 77.52C185.505 77.8933 185.185 78.2533 184.745 78.6C184.358 78.9067 183.865 79.16 183.265 79.36C182.705 79.5467 182.038 79.64 181.265 79.64C180.465 79.64 179.811 79.5667 179.305 79.42C178.745 79.26 178.285 79.06 177.925 78.82C177.565 78.58 177.291 78.2933 177.105 77.96C176.918 77.6267 176.825 77.2933 176.825 76.96C176.825 76.4667 176.985 76.04 177.305 75.68C177.625 75.32 178.065 75.04 178.625 74.84C178.345 74.72 178.118 74.54 177.945 74.3C177.771 74.06 177.685 73.76 177.685 73.4C177.685 73.32 177.711 73.1733 177.765 72.96C177.805 72.8 177.885 72.64 178.005 72.48C178.111 72.3333 178.251 72.1867 178.425 72.04C178.478 71.9867 178.665 71.8667 178.985 71.68C178.478 71.4 178.085 71.0267 177.805 70.56C177.525 70.0933 177.385 69.5533 177.385 68.94C177.385 68.42 177.478 67.9733 177.665 67.6C177.865 67.1867 178.131 66.8467 178.465 66.58C178.798 66.3 179.211 66.08 179.705 65.92C180.145 65.7733 180.658 65.7 181.245 65.7L181.205 65.74ZM181.225 71.12C181.571 71.12 181.891 71.0667 182.185 70.96C182.438 70.8667 182.671 70.7267 182.885 70.54C183.071 70.3667 183.211 70.1467 183.305 69.88C183.398 69.6 183.445 69.3267 183.445 69.06C183.445 68.4333 183.251 67.94 182.865 67.58C182.491 67.22 181.945 67.04 181.225 67.04C180.518 67.04 179.971 67.22 179.585 67.58C179.211 67.94 179.025 68.4333 179.025 69.06C179.025 69.3533 179.078 69.6267 179.185 69.88C179.305 70.16 179.445 70.3733 179.605 70.52C179.818 70.7067 180.051 70.8467 180.305 70.94C180.571 71.0333 180.878 71.08 181.225 71.08V71.12ZM184.385 76.6C184.385 76.3467 184.318 76.1467 184.185 76C184.051 75.84 183.858 75.72 183.605 75.64C183.351 75.56 183.078 75.5 182.785 75.46C182.358 75.4067 182.025 75.3733 181.785 75.36L180.725 75.32C180.658 75.32 180.318 75.28 179.705 75.2C179.318 75.3867 179.005 75.6067 178.765 75.86C178.525 76.1267 178.405 76.44 178.405 76.8C178.405 77.0267 178.465 77.24 178.585 77.44C178.705 77.6267 178.885 77.7933 179.125 77.94C179.378 78.0867 179.678 78.2 180.025 78.28C180.385 78.36 180.811 78.4 181.305 78.4C181.718 78.4 182.145 78.3533 182.585 78.26C182.931 78.1933 183.251 78.0667 183.545 77.88C183.811 77.72 184.011 77.5333 184.145 77.32C184.291 77.0933 184.365 76.8533 184.365 76.6H184.385ZM188.521 63.58C188.415 63.4733 188.321 63.34 188.241 63.18C188.175 63.0467 188.141 62.8867 188.141 62.7C188.141 62.5 188.175 62.3333 188.241 62.2C188.335 62.0133 188.428 61.8733 188.521 61.78C188.628 61.6733 188.761 61.58 188.921 61.5C189.055 61.4333 189.215 61.4 189.401 61.4C189.588 61.4 189.748 61.4333 189.881 61.5C190.041 61.58 190.175 61.6733 190.281 61.78C190.375 61.8733 190.468 62.0133 190.561 62.2C190.641 62.36 190.681 62.5267 190.681 62.7C190.681 62.86 190.641 63.02 190.561 63.18C190.481 63.34 190.388 63.4733 190.281 63.58C190.175 63.6867 190.041 63.78 189.881 63.86C189.748 63.9267 189.588 63.96 189.401 63.96C189.215 63.96 189.055 63.9267 188.921 63.86C188.761 63.78 188.628 63.6867 188.521 63.58ZM191.421 74.76C191.515 74.7733 191.588 74.82 191.641 74.9C191.695 74.9667 191.721 75.0467 191.721 75.14V76H187.061V75.14C187.061 75.0467 187.088 74.9667 187.141 74.9C187.195 74.82 187.268 74.7733 187.361 74.76L188.521 74.54V67.32L187.361 67.1C187.268 67.0867 187.195 67.0467 187.141 66.98C187.088 66.9 187.061 66.8133 187.061 66.72V65.88H190.281V74.54L191.421 74.76ZM195.702 67.32C196.702 66.24 197.822 65.7 199.062 65.7C200.156 65.7 200.996 66.0533 201.582 66.76C202.156 67.4533 202.442 68.38 202.442 69.54V74.52C203.082 74.64 203.462 74.72 203.582 74.76C203.796 74.8 203.902 74.9267 203.902 75.14V76H200.662V69.56C200.662 67.9333 199.956 67.12 198.542 67.12C197.542 67.12 196.622 67.5933 195.782 68.54V74.54C195.836 74.54 196.222 74.62 196.942 74.78C197.142 74.82 197.242 74.9467 197.242 75.16V76H192.582V75.16C192.582 74.9467 192.676 74.82 192.862 74.78L194.022 74.56V67.34C193.356 67.22 192.969 67.14 192.862 67.1C192.676 67.06 192.582 66.9333 192.582 66.72V65.88H195.062C195.302 65.88 195.462 66 195.542 66.24L195.702 67.34V67.32ZM212.899 65.68C214.019 65.68 214.939 66.08 215.659 66.88V62.72L214.319 62.48C214.119 62.44 214.019 62.32 214.019 62.12V61.24H217.419V74.52C218.086 74.64 218.473 74.72 218.579 74.76C218.766 74.8 218.859 74.92 218.859 75.12V76H216.379C216.139 76 215.979 75.8733 215.899 75.62L215.739 74.4C214.793 75.5467 213.659 76.12 212.339 76.12C211.153 76.12 210.219 75.68 209.539 74.8C208.846 73.88 208.499 72.6 208.499 70.96C208.499 69.4267 208.893 68.1733 209.679 67.2C210.493 66.1867 211.566 65.68 212.899 65.68ZM212.939 74.7C213.993 74.7 214.899 74.1867 215.659 73.16V68.28C215.059 67.48 214.279 67.08 213.319 67.08C212.346 67.08 211.606 67.4133 211.099 68.08C210.593 68.7467 210.339 69.7067 210.339 70.96C210.339 72.8667 210.833 74.04 211.819 74.48C212.126 74.6133 212.493 74.68 212.919 74.68L212.939 74.7ZM224.168 65.72C224.755 65.72 225.308 65.82 225.828 66.02C226.362 66.22 226.802 66.5067 227.148 66.88C227.548 67.3067 227.842 67.78 228.028 68.3C228.242 68.9 228.348 69.54 228.348 70.22C228.348 70.5267 228.322 70.7133 228.268 70.78C228.202 70.8733 228.082 70.92 227.908 70.92H221.188C221.188 71.56 221.268 72.12 221.428 72.6C221.562 73.0133 221.788 73.4 222.108 73.76C222.402 74.0933 222.735 74.3333 223.108 74.48C223.508 74.64 223.935 74.72 224.388 74.72C224.868 74.72 225.255 74.6733 225.548 74.58C225.828 74.4867 226.108 74.3733 226.388 74.24C226.682 74.0933 226.882 73.9867 226.988 73.92C227.162 73.8133 227.295 73.76 227.388 73.76C227.535 73.76 227.648 73.82 227.728 73.94L228.228 74.6C228.042 74.84 227.775 75.0667 227.428 75.28C227.028 75.5333 226.702 75.7 226.448 75.78C226.048 75.9133 225.688 76.0067 225.368 76.06C224.968 76.1267 224.602 76.16 224.268 76.16C223.575 76.16 222.928 76.04 222.328 75.8C221.755 75.5733 221.242 75.22 220.788 74.74C220.362 74.3 220.028 73.7333 219.788 73.04C219.548 72.36 219.428 71.5867 219.428 70.72C219.428 70.0267 219.542 69.3733 219.768 68.76C219.995 68.1333 220.308 67.6 220.708 67.16C221.122 66.7067 221.622 66.3533 222.208 66.1C222.795 65.8467 223.448 65.72 224.168 65.72ZM224.208 67.02C223.342 67.02 222.668 67.2667 222.188 67.76C221.695 68.28 221.388 68.9733 221.268 69.84H226.768C226.768 69.4267 226.708 69.0533 226.588 68.72C226.442 68.3067 226.282 68.0067 226.108 67.82C225.882 67.58 225.608 67.3867 225.288 67.24C224.982 67.1067 224.615 67.04 224.188 67.04L224.208 67.02ZM241.969 74.72C242.062 74.7333 242.136 74.78 242.189 74.86C242.242 74.9267 242.269 75.0067 242.269 75.1V75.96H240.189C240.069 75.96 239.929 75.9333 239.769 75.88C239.676 75.8533 239.609 75.7467 239.569 75.56L239.369 74.6L238.569 75.26C238.342 75.4467 238.076 75.6067 237.769 75.74C237.476 75.8733 237.182 75.9733 236.889 76.04C236.622 76.1067 236.262 76.14 235.809 76.14C235.436 76.14 235.076 76.08 234.729 75.96C234.316 75.8133 234.016 75.6533 233.829 75.48C233.589 75.2667 233.389 74.9867 233.229 74.64C233.082 74.3333 233.009 73.9333 233.009 73.44C233.009 73.0133 233.116 72.6267 233.329 72.28C233.569 71.8933 233.929 71.56 234.409 71.28C234.942 70.9733 235.582 70.7333 236.329 70.56C237.102 70.3867 238.076 70.3 239.249 70.3V69.52C239.249 68.7333 239.076 68.1333 238.729 67.72C238.382 67.3067 237.882 67.1 237.229 67.1C236.802 67.1 236.436 67.16 236.129 67.28C235.782 67.4133 235.529 67.5333 235.369 67.64C235.289 67.6933 235.196 67.7533 235.089 67.82C234.996 67.8733 234.896 67.9333 234.789 68C234.642 68.1067 234.489 68.16 234.329 68.16C234.182 68.16 234.076 68.1333 234.009 68.08C233.929 68.0133 233.862 67.9333 233.809 67.84L233.489 67.28C234.009 66.7733 234.609 66.3733 235.289 66.08C235.902 65.8133 236.622 65.68 237.449 65.68C238.049 65.68 238.556 65.7733 238.969 65.96C239.422 66.16 239.789 66.4133 240.069 66.72C240.362 67.0267 240.589 67.4267 240.749 67.92C240.896 68.36 240.969 68.88 240.969 69.48V74.54C241.609 74.6733 241.942 74.7467 241.969 74.76V74.72ZM239.209 71.44C238.342 71.44 237.649 71.4867 237.129 71.58C236.622 71.6733 236.156 71.8133 235.729 72C235.356 72.1733 235.089 72.3733 234.929 72.6C234.769 72.84 234.689 73.0933 234.689 73.36C234.689 73.5733 234.736 73.8 234.829 74.04C234.909 74.24 235.029 74.4 235.189 74.52C235.349 74.64 235.522 74.7267 235.709 74.78C235.936 74.8467 236.156 74.88 236.369 74.88C236.636 74.88 236.916 74.8467 237.209 74.78C237.476 74.7133 237.722 74.6267 237.949 74.52C238.149 74.4267 238.369 74.28 238.609 74.08C238.742 73.9733 238.942 73.7867 239.209 73.52V71.44ZM247.303 65.68C248.423 65.68 249.343 66.08 250.063 66.88V62.72L248.723 62.48C248.523 62.44 248.423 62.32 248.423 62.12V61.24H251.823V74.52C252.49 74.64 252.876 74.72 252.983 74.76C253.17 74.8 253.263 74.92 253.263 75.12V76H250.783C250.543 76 250.383 75.8733 250.303 75.62L250.143 74.4C249.196 75.5467 248.063 76.12 246.743 76.12C245.556 76.12 244.623 75.68 243.943 74.8C243.25 73.88 242.903 72.6 242.903 70.96C242.903 69.4267 243.296 68.1733 244.083 67.2C244.896 66.1867 245.97 65.68 247.303 65.68ZM247.343 74.7C248.396 74.7 249.303 74.1867 250.063 73.16V68.28C249.463 67.48 248.683 67.08 247.723 67.08C246.75 67.08 246.01 67.4133 245.503 68.08C244.996 68.7467 244.743 69.7067 244.743 70.96C244.743 72.8667 245.236 74.04 246.223 74.48C246.53 74.6133 246.896 74.68 247.323 74.68L247.343 74.7ZM257.564 67.3C258.417 66.2467 259.37 65.72 260.424 65.72C261.117 65.72 261.677 65.9133 262.104 66.3C262.517 66.6733 262.824 67.1867 263.024 67.84C263.317 67.12 263.757 66.5867 264.344 66.24C264.957 65.8933 265.544 65.72 266.104 65.72C266.69 65.72 267.21 65.8067 267.664 65.98C268.09 66.14 268.45 66.3867 268.744 66.72C269.33 67.3867 269.624 68.3333 269.624 69.56V74.56C270.29 74.68 270.677 74.76 270.784 74.8C270.984 74.84 271.084 74.96 271.084 75.16V76.04H267.864V69.58C267.864 68.7667 267.69 68.1667 267.344 67.78C266.97 67.3667 266.464 67.16 265.824 67.16C265.21 67.16 264.704 67.36 264.304 67.76C263.864 68.2 263.644 68.8 263.644 69.56V74.56C263.697 74.5733 263.81 74.6 263.984 74.64C264.157 74.68 264.424 74.7333 264.784 74.8C264.984 74.84 265.084 74.96 265.084 75.16V76.02H261.864V69.56C261.864 67.96 261.224 67.16 259.944 67.16C259.117 67.16 258.364 67.6 257.684 68.48V74.56L258.224 74.66L258.824 74.78C259.024 74.82 259.124 74.9467 259.124 75.16V76H254.464V75.16C254.464 74.9467 254.557 74.82 254.744 74.78L255.904 74.56V67.34C255.237 67.22 254.85 67.14 254.744 67.1C254.557 67.06 254.464 66.9333 254.464 66.72V65.88H256.944C257.184 65.88 257.344 66 257.424 66.24L257.564 67.28V67.3ZM273.337 63.58C273.23 63.4733 273.137 63.34 273.057 63.18C272.99 63.0467 272.957 62.8867 272.957 62.7C272.957 62.5 272.99 62.3333 273.057 62.2C273.15 62.0133 273.243 61.8733 273.337 61.78C273.443 61.6733 273.577 61.58 273.737 61.5C273.87 61.4333 274.03 61.4 274.217 61.4C274.403 61.4 274.563 61.4333 274.697 61.5C274.857 61.58 274.99 61.6733 275.097 61.78C275.19 61.8733 275.283 62.0133 275.377 62.2C275.457 62.36 275.497 62.5267 275.497 62.7C275.497 62.86 275.457 63.02 275.377 63.18C275.297 63.34 275.203 63.4733 275.097 63.58C274.99 63.6867 274.857 63.78 274.697 63.86C274.563 63.9267 274.403 63.96 274.217 63.96C274.03 63.96 273.87 63.9267 273.737 63.86C273.577 63.78 273.443 63.6867 273.337 63.58ZM276.237 74.76C276.33 74.7733 276.403 74.82 276.457 74.9C276.51 74.9667 276.537 75.0467 276.537 75.14V76H271.877V75.14C271.877 75.0467 271.903 74.9667 271.957 74.9C272.01 74.82 272.083 74.7733 272.177 74.76L273.337 74.54V67.32L272.177 67.1C272.083 67.0867 272.01 67.0467 271.957 66.98C271.903 66.9 271.877 66.8133 271.877 66.72V65.88H275.097V74.54L276.237 74.76ZM280.518 67.32C281.518 66.24 282.638 65.7 283.878 65.7C284.971 65.7 285.811 66.0533 286.398 66.76C286.971 67.4533 287.258 68.38 287.258 69.54V74.52C287.898 74.64 288.278 74.72 288.398 74.76C288.611 74.8 288.718 74.9267 288.718 75.14V76H285.478V69.56C285.478 67.9333 284.771 67.12 283.358 67.12C282.358 67.12 281.438 67.5933 280.598 68.54V74.54C280.651 74.54 281.038 74.62 281.758 74.78C281.958 74.82 282.058 74.9467 282.058 75.16V76H277.398V75.16C277.398 74.9467 277.491 74.82 277.678 74.78L278.838 74.56V67.34C278.171 67.22 277.784 67.14 277.678 67.1C277.491 67.06 277.398 66.9333 277.398 66.72V65.88H279.878C280.118 65.88 280.278 66 280.358 66.24L280.518 67.34V67.32ZM290.978 63.58C290.871 63.4733 290.778 63.34 290.698 63.18C290.631 63.0467 290.598 62.8867 290.598 62.7C290.598 62.5 290.631 62.3333 290.698 62.2C290.791 62.0133 290.884 61.8733 290.978 61.78C291.084 61.6733 291.218 61.58 291.378 61.5C291.511 61.4333 291.671 61.4 291.858 61.4C292.044 61.4 292.204 61.4333 292.338 61.5C292.498 61.58 292.631 61.6733 292.738 61.78C292.831 61.8733 292.924 62.0133 293.018 62.2C293.098 62.36 293.138 62.5267 293.138 62.7C293.138 62.86 293.098 63.02 293.018 63.18C292.938 63.34 292.844 63.4733 292.738 63.58C292.631 63.6867 292.498 63.78 292.338 63.86C292.204 63.9267 292.044 63.96 291.858 63.96C291.671 63.96 291.511 63.9267 291.378 63.86C291.218 63.78 291.084 63.6867 290.978 63.58ZM293.878 74.76C293.971 74.7733 294.044 74.82 294.098 74.9C294.151 74.9667 294.178 75.0467 294.178 75.14V76H289.518V75.14C289.518 75.0467 289.544 74.9667 289.598 74.9C289.651 74.82 289.724 74.7733 289.818 74.76L290.978 74.54V67.32L289.818 67.1C289.724 67.0867 289.651 67.0467 289.598 66.98C289.544 66.9 289.518 66.8133 289.518 66.72V65.88H292.738V74.54L293.878 74.76ZM298.979 65.72C299.672 65.72 300.552 65.9 301.619 66.26V68.86H300.839C300.652 68.86 300.539 68.7667 300.499 68.58L300.379 67.26C299.752 67.1133 299.232 67.04 298.819 67.04H298.799C298.252 67.04 297.792 67.1867 297.419 67.48C297.059 67.76 296.879 68.0667 296.879 68.4C296.879 68.7467 296.959 69 297.119 69.16C297.386 69.4667 297.772 69.7 298.279 69.86L298.879 70.04C298.986 70.0667 299.199 70.1333 299.519 70.24L300.479 70.6C300.746 70.6933 301.026 70.8667 301.319 71.12C301.866 71.5467 302.139 72.1333 302.139 72.88C302.139 73.8533 301.812 74.6267 301.159 75.2C300.452 75.8267 299.559 76.14 298.479 76.14C297.372 76.14 296.279 75.96 295.199 75.6V72.96H295.919C296.079 72.96 296.179 73.04 296.219 73.2L296.339 74.48C296.872 74.7467 297.559 74.88 298.399 74.88C299.039 74.88 299.559 74.7133 299.959 74.38C300.306 74.0733 300.479 73.7333 300.479 73.36C300.479 72.9733 300.399 72.6933 300.239 72.52C300.052 72.3067 299.852 72.1467 299.639 72.04C299.346 71.8933 299.066 71.7867 298.799 71.72C297.812 71.4 297.192 71.1867 296.939 71.08C296.619 70.9333 296.319 70.7467 296.039 70.52C295.479 70.0533 295.199 69.4267 295.199 68.64C295.199 67.84 295.519 67.16 296.159 66.6C296.826 66.0133 297.766 65.72 298.979 65.72ZM306.582 76.16C305.809 76.16 305.196 75.9333 304.742 75.48C304.316 75.0533 304.102 74.4133 304.102 73.56V67.36H302.882C302.762 67.36 302.669 67.3333 302.602 67.28C302.536 67.2267 302.502 67.1267 302.502 66.98V66.28L304.162 66.06L304.562 62.92C304.562 62.8133 304.602 62.7333 304.682 62.68C304.749 62.6267 304.842 62.6 304.962 62.6H305.862V66.08H308.762V67.38H305.862V73.46C305.862 73.9 305.962 74.22 306.162 74.42C306.362 74.62 306.636 74.72 306.982 74.72C307.129 74.72 307.296 74.6933 307.482 74.64C307.602 74.6 307.722 74.5467 307.842 74.48C307.882 74.4533 307.922 74.4267 307.962 74.4C308.002 74.3733 308.042 74.3467 308.082 74.32C308.189 74.2667 308.256 74.24 308.282 74.24C308.376 74.24 308.456 74.2933 308.522 74.4L309.042 75.24C308.682 75.5467 308.309 75.7733 307.922 75.92C307.482 76.08 307.036 76.16 306.582 76.16ZM313.008 67.94C313.754 66.4333 314.781 65.68 316.088 65.68C316.608 65.68 317.068 65.8 317.468 66.04L317.248 67.38C317.208 67.5533 317.121 67.64 316.988 67.64C316.894 67.64 316.734 67.6067 316.508 67.54C316.281 67.4733 316.008 67.44 315.688 67.44C314.514 67.44 313.648 68.1467 313.088 69.56V74.56L314.228 74.78C314.428 74.82 314.528 74.9467 314.528 75.16V76H309.868V75.16C309.868 74.9467 309.968 74.82 310.168 74.78L311.308 74.56V67.34C310.668 67.22 310.288 67.14 310.168 67.1C309.968 67.06 309.868 66.9333 309.868 66.72V65.88H312.328C312.514 65.88 312.641 65.9133 312.708 65.98C312.774 66.0467 312.828 66.1733 312.868 66.36L312.988 67.94H313.008ZM326.57 74.72C326.663 74.7333 326.736 74.78 326.79 74.86C326.843 74.9267 326.87 75.0067 326.87 75.1V75.96H324.79C324.67 75.96 324.53 75.9333 324.37 75.88C324.276 75.8533 324.21 75.7467 324.17 75.56L323.97 74.6L323.17 75.26C322.943 75.4467 322.676 75.6067 322.37 75.74C322.076 75.8733 321.783 75.9733 321.49 76.04C321.223 76.1067 320.863 76.14 320.41 76.14C320.036 76.14 319.676 76.08 319.33 75.96C318.916 75.8133 318.616 75.6533 318.43 75.48C318.19 75.2667 317.99 74.9867 317.83 74.64C317.683 74.3333 317.61 73.9333 317.61 73.44C317.61 73.0133 317.716 72.6267 317.93 72.28C318.17 71.8933 318.53 71.56 319.01 71.28C319.543 70.9733 320.183 70.7333 320.93 70.56C321.703 70.3867 322.676 70.3 323.85 70.3V69.52C323.85 68.7333 323.676 68.1333 323.33 67.72C322.983 67.3067 322.483 67.1 321.83 67.1C321.403 67.1 321.036 67.16 320.73 67.28C320.383 67.4133 320.13 67.5333 319.97 67.64C319.89 67.6933 319.796 67.7533 319.69 67.82C319.596 67.8733 319.496 67.9333 319.39 68C319.243 68.1067 319.09 68.16 318.93 68.16C318.783 68.16 318.676 68.1333 318.61 68.08C318.53 68.0133 318.463 67.9333 318.41 67.84L318.09 67.28C318.61 66.7733 319.21 66.3733 319.89 66.08C320.503 65.8133 321.223 65.68 322.05 65.68C322.65 65.68 323.156 65.7733 323.57 65.96C324.023 66.16 324.39 66.4133 324.67 66.72C324.963 67.0267 325.19 67.4267 325.35 67.92C325.496 68.36 325.57 68.88 325.57 69.48V74.54C326.21 74.6733 326.543 74.7467 326.57 74.76V74.72ZM323.81 71.44C322.943 71.44 322.25 71.4867 321.73 71.58C321.223 71.6733 320.756 71.8133 320.33 72C319.956 72.1733 319.69 72.3733 319.53 72.6C319.37 72.84 319.29 73.0933 319.29 73.36C319.29 73.5733 319.336 73.8 319.43 74.04C319.51 74.24 319.63 74.4 319.79 74.52C319.95 74.64 320.123 74.7267 320.31 74.78C320.536 74.8467 320.756 74.88 320.97 74.88C321.236 74.88 321.516 74.8467 321.81 74.78C322.076 74.7133 322.323 74.6267 322.55 74.52C322.75 74.4267 322.97 74.28 323.21 74.08C323.343 73.9733 323.543 73.7867 323.81 73.52V71.44ZM331.903 65.68C333.023 65.68 333.943 66.08 334.663 66.88V62.72L333.323 62.48C333.123 62.44 333.023 62.32 333.023 62.12V61.24H336.423V74.52C337.09 74.64 337.477 74.72 337.583 74.76C337.77 74.8 337.863 74.92 337.863 75.12V76H335.383C335.143 76 334.983 75.8733 334.903 75.62L334.743 74.4C333.797 75.5467 332.663 76.12 331.343 76.12C330.157 76.12 329.223 75.68 328.543 74.8C327.85 73.88 327.503 72.6 327.503 70.96C327.503 69.4267 327.897 68.1733 328.683 67.2C329.497 66.1867 330.57 65.68 331.903 65.68ZM331.943 74.7C332.997 74.7 333.903 74.1867 334.663 73.16V68.28C334.063 67.48 333.283 67.08 332.323 67.08C331.35 67.08 330.61 67.4133 330.103 68.08C329.597 68.7467 329.343 69.7067 329.343 70.96C329.343 72.8667 329.837 74.04 330.823 74.48C331.13 74.6133 331.497 74.68 331.923 74.68L331.943 74.7ZM343.313 65.72C344.046 65.72 344.713 65.84 345.313 66.08C345.899 66.32 346.413 66.6667 346.853 67.12C347.266 67.5467 347.586 68.0933 347.813 68.76C348.039 69.4133 348.153 70.1333 348.153 70.92C348.153 71.7067 348.039 72.4267 347.813 73.08C347.586 73.7467 347.266 74.2933 346.853 74.72C346.413 75.1733 345.899 75.52 345.313 75.76C344.713 76 344.046 76.12 343.313 76.12C342.579 76.12 341.913 76 341.313 75.76C340.726 75.52 340.213 75.1733 339.773 74.72C339.373 74.3067 339.046 73.76 338.793 73.08C338.579 72.5067 338.473 71.7867 338.473 70.92C338.473 70.0533 338.579 69.3333 338.793 68.76C339.046 68.08 339.373 67.5333 339.773 67.12C340.213 66.6667 340.726 66.32 341.313 66.08C341.913 65.84 342.579 65.72 343.313 65.72ZM343.313 74.76C344.339 74.76 345.086 74.4267 345.553 73.76C346.046 73.0667 346.293 72.1267 346.293 70.94C346.293 69.7533 346.046 68.8133 345.553 68.12C345.086 67.4533 344.339 67.12 343.313 67.12C342.793 67.12 342.353 67.2 341.993 67.36C341.646 67.52 341.339 67.7733 341.073 68.12C340.819 68.4667 340.633 68.8667 340.513 69.32C340.379 69.8533 340.313 70.4 340.313 70.96C340.313 71.4933 340.379 72.0267 340.513 72.56C340.633 73.0133 340.819 73.4133 341.073 73.76C341.299 74.0667 341.606 74.3067 341.993 74.48C342.419 74.6667 342.859 74.76 343.313 74.76ZM352.099 67.94C352.846 66.4333 353.872 65.68 355.179 65.68C355.699 65.68 356.159 65.8 356.559 66.04L356.339 67.38C356.299 67.5533 356.212 67.64 356.079 67.64C355.986 67.64 355.826 67.6067 355.599 67.54C355.372 67.4733 355.099 67.44 354.779 67.44C353.606 67.44 352.739 68.1467 352.179 69.56V74.56L353.319 74.78C353.519 74.82 353.619 74.9467 353.619 75.16V76H348.959V75.16C348.959 74.9467 349.059 74.82 349.259 74.78L350.399 74.56V67.34C349.759 67.22 349.379 67.14 349.259 67.1C349.059 67.06 348.959 66.9333 348.959 66.72V65.88H351.419C351.606 65.88 351.732 65.9133 351.799 65.98C351.866 66.0467 351.919 66.1733 351.959 66.36L352.079 67.94H352.099Z" fill="#0094FF"/>
</svg>
